<svg xmlns="http://www.w3.org/2000/svg" viewBox="0 0 900 700">
<defs><linearGradient id="g" x1="0" y1="0" x2="1" y2="1"><stop stop-color="#e5ded8"/><stop offset="1" stop-color="#d6c9bf"/></linearGradient><filter id="s" x="-30%" y="-30%" width="160%" height="160%"><feDropShadow dx="0" dy="24" stdDeviation="22" flood-color="#40372a" flood-opacity=".16"/></filter></defs>
<rect width="900" height="700" rx="52" fill="url(#g)"/><circle cx="720" cy="115" r="185" fill="#fff" opacity=".24"/><circle cx="120" cy="610" r="170" fill="#fff" opacity=".18"/>
<g filter="url(#s)">
<rect x="230" y="210" width="150" height="330" rx="34" fill="#fff" fill-opacity=".72" stroke="#252726" stroke-opacity=".14"/><rect x="276" y="150" width="60" height="68" rx="10" fill="#252726" fill-opacity=".82"/>
<rect x="415" y="265" width="135" height="275" rx="28" fill="#fff" fill-opacity=".62" stroke="#252726" stroke-opacity=".14"/><rect x="456" y="210" width="53" height="60" rx="9" fill="#b39258" fill-opacity=".9"/>
<rect x="548" y="415" width="170" height="122" rx="32" fill="#fff" fill-opacity=".68" stroke="#252726" stroke-opacity=".14"/><rect x="548" y="385" width="170" height="45" rx="15" fill="#252726" fill-opacity=".8"/>
<path d="M186 538c90-90 148-108 240-54 88 50 175 32 286-80" fill="none" stroke="#b39258" stroke-width="13" stroke-linecap="round" opacity=".7"/>
</g>
<text x="305" y="365" font-family="Arial" font-size="15" letter-spacing="4" fill="#252726" opacity=".55">LET’S / TALK</text>
<text x="438" y="405" font-family="Arial" font-size="12" letter-spacing="3" fill="#252726" opacity=".55">LAB</text>
<text x="585" y="485" font-family="Arial" font-size="14" letter-spacing="3" fill="#252726" opacity=".55">01</text>
</svg>